<?xml version="1.0" encoding="utf-8"?>
<!-- Svg Vector Icons : http://www.onlinewebfonts.com/icon -->
<!DOCTYPE svg PUBLIC "-//W3C//DTD SVG 1.1//EN" "http://www.w3.org/Graphics/SVG/1.1/DTD/svg11.dtd">
<svg version="1.1" xmlns="http://www.w3.org/2000/svg" xmlns:xlink="http://www.w3.org/1999/xlink" x="0px" y="0px" viewBox="0 0 1000 1000" enable-background="new 0 0 1000 1000" xml:space="preserve">
<metadata> Svg Vector Icons : http://www.onlinewebfonts.com/icon </metadata>
<g><path d="M10,187.7h104.8v38.6H10V187.7z M10,151.2h104.8v-35.3H10V151.2z M10,298.3h104.8v-35.3H10V298.3z M990,899.1c-2,0.1-4,0.1-6.1,0.1c-89.3,0-191.7-68.9-236.4-136.9c-40.3,6.1-80.4-17.1-94.1-57L605.7,566c-6.1,0.5-12.3,0.9-18.7,0.9c-128.7,0-233.1-104.3-233.1-233c0-7,0.4-13.7,1-20.6H160.9V100.8H587c128.7,0,233.1,104.3,233.1,233c0,59.6-22.6,113.7-59.3,155l55,160.9c12.5,36.4-1.2,75.1-30.6,96.7c40.7,57.6,130.4,115.4,203.2,112.2L990,899.1z M672.9,333.8c0-47.4-38.5-85.9-85.9-85.9c-47.5,0-85.9,38.5-85.9,85.9s38.4,86,85.9,86C634.5,419.8,672.9,381.3,672.9,333.8z"/></g>
</svg>